<?xml version='1.0' encoding='UTF-8' standalone='no'?>
<!-- Created with Fritzing (http://www.fritzing.org/) -->
<svg xmlns:svg='http://www.w3.org/2000/svg' xmlns='http://www.w3.org/2000/svg' version='1.2' baseProfile='tiny' x='0in' y='0in' width='1.58689in' height='0.539986in' viewBox='0 0 114.256 38.879' >
<g partID='59710'><g xmlns="http://www.w3.org/2000/svg" id="breadboard">
 <circle xmlns="http://www.w3.org/2000/svg" id="connector0pin" fill="none" cx="31.928" cy="33.84" r="1.98" stroke="#9A916C" stroke-width="0.381"/>
 <path xmlns="http://www.w3.org/2000/svg" d="M31.928,28.799c1.392,0,2.52,1.129,2.52,2.521l0,5.04c0,1.393,-1.128,2.52,-2.52,2.52l0,0c-1.392,0,-2.52,-1.127,-2.52,-2.52l0,-5.04C29.408,29.928,30.536,28.799,31.928,28.799L31.928,28.799zM30.488,33.84c-0.001,0.795,0.644,1.439,1.439,1.44c0.795,0.001,1.44,-0.644,1.441,-1.438c0,-0.001,0,-0.002,0,-0.002c0,-0.795,-0.644,-1.441,-1.439,-1.441c-0.795,0,-1.44,0.644,-1.441,1.439C30.488,33.838,30.488,33.839,30.488,33.84z" id="path3" fill="#9A916C"/>
 <circle xmlns="http://www.w3.org/2000/svg" id="connector1pin" fill="none" cx="39.128" cy="33.84" r="1.98" stroke="#9A916C" stroke-width="0.381"/>
 <path xmlns="http://www.w3.org/2000/svg" d="M39.128,28.799c1.392,0,2.52,1.129,2.52,2.521l0,5.04c0,1.393,-1.128,2.52,-2.52,2.52l0,0c-1.392,0,-2.52,-1.127,-2.52,-2.52l0,-5.04C36.608,29.928,37.736,28.799,39.128,28.799L39.128,28.799zM37.688,33.84c0,0.795,0.644,1.439,1.439,1.44s1.44,-0.644,1.441,-1.438c0,-0.001,0,-0.002,0,-0.002c0,-0.795,-0.644,-1.441,-1.439,-1.441c-0.795,0,-1.44,0.644,-1.441,1.439C37.688,33.838,37.688,33.839,37.688,33.84z" id="path6" fill="#9A916C"/>
 <circle xmlns="http://www.w3.org/2000/svg" id="connector2pin" fill="none" cx="46.328" cy="33.84" r="1.98" stroke="#9A916C" stroke-width="0.381"/>
 <path xmlns="http://www.w3.org/2000/svg" d="M46.328,28.799c1.392,0,2.52,1.129,2.52,2.521l0,5.04c0,1.393,-1.128,2.52,-2.52,2.52l0,0c-1.392,0,-2.52,-1.127,-2.52,-2.52l0,-5.04C43.808,29.928,44.937,28.799,46.328,28.799L46.328,28.799zM44.888,33.84c0,0.795,0.644,1.439,1.439,1.44s1.44,-0.644,1.441,-1.438c0,-0.001,0,-0.002,0,-0.002c0,-0.795,-0.644,-1.441,-1.439,-1.441s-1.44,0.644,-1.441,1.439C44.888,33.838,44.888,33.839,44.888,33.84z" id="path9" fill="#9A916C"/>
 <circle xmlns="http://www.w3.org/2000/svg" id="connector3pin" fill="none" cx="53.528" cy="33.84" r="1.98" stroke="#9A916C" stroke-width="0.381"/>
 <path xmlns="http://www.w3.org/2000/svg" d="M53.528,28.799c1.392,0,2.52,1.129,2.52,2.521l0,5.04c0,1.393,-1.128,2.52,-2.52,2.52l0,0c-1.392,0,-2.52,-1.127,-2.52,-2.52l0,-5.04C51.008,29.928,52.136,28.799,53.528,28.799L53.528,28.799zM52.088,33.84c0,0.795,0.645,1.439,1.44,1.439c0.795,0,1.44,-0.645,1.44,-1.439s-0.645,-1.44,-1.44,-1.44C52.733,32.4,52.088,33.045,52.088,33.84L52.088,33.84z" id="path12" fill="#9A916C"/>
 <circle xmlns="http://www.w3.org/2000/svg" id="connector4pin" fill="none" cx="60.728" cy="33.84" r="1.98" stroke="#9A916C" stroke-width="0.381"/>
 <path xmlns="http://www.w3.org/2000/svg" d="M60.728,28.799c1.393,0,2.521,1.129,2.521,2.521l0,5.04c0,1.393,-1.128,2.52,-2.521,2.52l0,0c-1.391,0,-2.52,-1.127,-2.52,-2.52l0,-5.04C58.208,29.928,59.337,28.799,60.728,28.799L60.728,28.799zM59.288,33.84c0,0.795,0.645,1.439,1.439,1.439c0.796,0,1.44,-0.645,1.44,-1.439s-0.645,-1.44,-1.44,-1.44C59.933,32.4,59.288,33.045,59.288,33.84L59.288,33.84z" id="path15" fill="#9A916C"/>
 <circle xmlns="http://www.w3.org/2000/svg" id="connector5pin" fill="none" cx="67.929" cy="33.84" r="1.98" stroke="#9A916C" stroke-width="0.381"/>
 <path xmlns="http://www.w3.org/2000/svg" d="M67.929,28.799c1.391,0,2.52,1.129,2.52,2.521l0,5.04c0,1.393,-1.129,2.52,-2.52,2.52l0,0c-1.393,0,-2.521,-1.127,-2.521,-2.52l0,-5.04C65.408,29.928,66.536,28.799,67.929,28.799L67.929,28.799zM66.488,33.84c0,0.795,0.645,1.439,1.44,1.439c0.795,0,1.439,-0.645,1.439,-1.439s-0.645,-1.44,-1.439,-1.44C67.133,32.4,66.488,33.045,66.488,33.84L66.488,33.84z" id="path18" fill="#9A916C"/>
 <circle xmlns="http://www.w3.org/2000/svg" id="connector7pin" fill="none" cx="82.328" cy="33.84" r="1.98" stroke="#9A916C" stroke-width="0.381"/>
 <path xmlns="http://www.w3.org/2000/svg" d="M82.328,28.799c1.392,0,2.521,1.129,2.521,2.521l0,5.04c0,1.393,-1.129,2.52,-2.521,2.52l0,0c-1.392,0,-2.521,-1.127,-2.521,-2.52l0,-5.04C79.808,29.928,80.937,28.799,82.328,28.799L82.328,28.799zM80.888,33.84c0,0.795,0.645,1.439,1.44,1.439s1.44,-0.645,1.44,-1.439s-0.645,-1.44,-1.44,-1.44S80.888,33.045,80.888,33.84L80.888,33.84z" id="path21" fill="#9A916C"/>
 <circle xmlns="http://www.w3.org/2000/svg" id="connector6pin" fill="none" cx="75.128" cy="33.84" r="1.98" stroke="#9A916C" stroke-width="0.381"/>
 <path xmlns="http://www.w3.org/2000/svg" d="M75.128,28.799c1.393,0,2.52,1.129,2.52,2.521l0,5.04c0,1.393,-1.127,2.52,-2.52,2.52l0,0c-1.392,0,-2.52,-1.127,-2.52,-2.52l0,-5.04C72.608,29.928,73.736,28.799,75.128,28.799L75.128,28.799zM73.688,33.84c0,0.795,0.645,1.439,1.439,1.439s1.439,-0.645,1.439,-1.439s-0.645,-1.44,-1.439,-1.44S73.688,33.045,73.688,33.84L73.688,33.84z" id="path24" fill="#9A916C"/>
 <circle xmlns="http://www.w3.org/2000/svg" id="connector8pin" fill="none" cx="82.328" cy="5.04" r="1.98" stroke="#9A916C" stroke-width="0.381"/>
 <path xmlns="http://www.w3.org/2000/svg" d="M82.328,0c1.392,0,2.521,1.128,2.521,2.52l0,5.04c0,1.392,-1.129,2.52,-2.521,2.52l0,0c-1.392,0,-2.521,-1.128,-2.521,-2.52L79.807,2.52C79.808,1.128,80.937,0,82.328,0L82.328,0zM80.888,5.04c0,0.795,0.645,1.44,1.44,1.44s1.44,-0.645,1.44,-1.44s-0.645,-1.44,-1.44,-1.44S80.888,4.245,80.888,5.04L80.888,5.04z" id="path27" fill="#9A916C"/>
 <circle xmlns="http://www.w3.org/2000/svg" id="connector13pin" fill="none" cx="46.328" cy="5.04" r="1.98" stroke="#9A916C" stroke-width="0.381"/>
 <path xmlns="http://www.w3.org/2000/svg" d="M46.328,0c1.392,0,2.52,1.128,2.52,2.52l0,5.04c0,1.392,-1.128,2.52,-2.52,2.52l0,0c-1.392,0,-2.52,-1.128,-2.52,-2.52L43.808,2.52C43.808,1.128,44.937,0,46.328,0L46.328,0zM44.888,5.04c0,0.795,0.644,1.44,1.439,1.441s1.44,-0.644,1.441,-1.439c0,0,0,-0.001,0,-0.002c0,-0.795,-0.644,-1.44,-1.439,-1.441s-1.44,0.644,-1.441,1.439C44.888,5.039,44.888,5.04,44.888,5.04z" id="path30" fill="#9A916C"/>
 <circle xmlns="http://www.w3.org/2000/svg" id="connector12pin" fill="none" cx="53.528" cy="5.04" r="1.98" stroke="#9A916C" stroke-width="0.381"/>
 <path xmlns="http://www.w3.org/2000/svg" d="M53.528,0c1.392,0,2.52,1.128,2.52,2.52l0,5.04c0,1.392,-1.128,2.52,-2.52,2.52l0,0c-1.392,0,-2.52,-1.128,-2.52,-2.52L51.008,2.52C51.008,1.128,52.136,0,53.528,0L53.528,0zM52.088,5.04c0,0.795,0.645,1.44,1.44,1.44c0.795,0,1.44,-0.645,1.44,-1.44s-0.645,-1.44,-1.44,-1.44C52.733,3.6,52.088,4.245,52.088,5.04L52.088,5.04z" id="path33" fill="#9A916C"/>
 <circle xmlns="http://www.w3.org/2000/svg" id="connector11pin" fill="none" cx="60.728" cy="5.04" r="1.98" stroke="#9A916C" stroke-width="0.381"/>
 <path xmlns="http://www.w3.org/2000/svg" d="M60.728,0c1.393,0,2.521,1.128,2.521,2.52l0,5.04c0,1.392,-1.128,2.52,-2.521,2.52l0,0c-1.391,0,-2.52,-1.128,-2.52,-2.52L58.208,2.52C58.208,1.128,59.337,0,60.728,0L60.728,0zM59.288,5.04c0,0.795,0.645,1.44,1.439,1.44c0.796,0,1.44,-0.645,1.44,-1.44s-0.645,-1.44,-1.44,-1.44C59.933,3.6,59.288,4.245,59.288,5.04L59.288,5.04z" id="path36" fill="#9A916C"/>
 <circle xmlns="http://www.w3.org/2000/svg" id="connector9pin" fill="none" cx="75.128" cy="5.04" r="1.98" stroke="#9A916C" stroke-width="0.381"/>
 <path xmlns="http://www.w3.org/2000/svg" d="M75.128,0c1.393,0,2.52,1.128,2.52,2.52l0,5.04c0,1.392,-1.127,2.52,-2.52,2.52l0,0c-1.392,0,-2.52,-1.128,-2.52,-2.52L72.608,2.52C72.608,1.128,73.736,0,75.128,0L75.128,0zM73.688,5.04c0,0.795,0.645,1.44,1.439,1.44s1.439,-0.645,1.439,-1.44S75.923,3.6,75.128,3.6S73.688,4.245,73.688,5.04L73.688,5.04z" id="path39" fill="#9A916C"/>
 <circle xmlns="http://www.w3.org/2000/svg" id="connector10pin" fill="none" cx="67.929" cy="5.04" r="1.98" stroke="#9A916C" stroke-width="0.381"/>
 <path xmlns="http://www.w3.org/2000/svg" d="M67.929,0c1.391,0,2.52,1.128,2.52,2.52l0,5.04c0,1.392,-1.129,2.52,-2.52,2.52l0,0c-1.393,0,-2.521,-1.128,-2.521,-2.52L65.408,2.52C65.408,1.128,66.536,0,67.929,0L67.929,0zM66.488,5.04c0,0.795,0.645,1.44,1.44,1.44c0.795,0,1.439,-0.645,1.439,-1.44S68.724,3.6,67.929,3.6C67.133,3.6,66.488,4.245,66.488,5.04L66.488,5.04z" id="path42" fill="#9A916C"/>
 <circle xmlns="http://www.w3.org/2000/svg" id="connector14pin" fill="none" cx="39.128" cy="5.04" r="1.98" stroke="#9A916C" stroke-width="0.381"/>
 <path xmlns="http://www.w3.org/2000/svg" d="M39.128,0c1.392,0,2.52,1.128,2.52,2.52l0,5.04c0,1.392,-1.128,2.52,-2.52,2.52l0,0c-1.392,0,-2.52,-1.128,-2.52,-2.52L36.608,2.52C36.608,1.128,37.736,0,39.128,0L39.128,0zM37.688,5.04c0,0.795,0.644,1.44,1.439,1.441s1.44,-0.644,1.441,-1.439c0,0,0,-0.001,0,-0.002c0,-0.795,-0.644,-1.44,-1.439,-1.441c-0.795,0,-1.44,0.644,-1.441,1.439C37.688,5.039,37.688,5.04,37.688,5.04z" id="path45" fill="#9A916C"/>
 <circle xmlns="http://www.w3.org/2000/svg" id="connector15pin" fill="none" cx="31.928" cy="5.04" r="1.98" stroke="#9A916C" stroke-width="0.381"/>
 <path xmlns="http://www.w3.org/2000/svg" d="M31.928,0c1.392,0,2.52,1.128,2.52,2.52l0,5.04c0,1.392,-1.128,2.52,-2.52,2.52l0,0c-1.392,0,-2.52,-1.128,-2.52,-2.52L29.408,2.52C29.408,1.128,30.536,0,31.928,0L31.928,0zM30.488,5.04c-0.001,0.795,0.644,1.44,1.439,1.441c0.795,0,1.44,-0.644,1.441,-1.439c0,0,0,-0.001,0,-0.002c0,-0.795,-0.644,-1.44,-1.439,-1.441c-0.795,0,-1.44,0.644,-1.441,1.439C30.488,5.039,30.488,5.04,30.488,5.04z" id="path48" fill="#9A916C"/>
 <polygon xmlns="http://www.w3.org/2000/svg" id="polygon50" fill="#323232" points="-0.112,1.008,113.253,1.008,114.368,2.008,114.368,37.872,0.888,37.872,-0.112,36.565"/>
 <polygon xmlns="http://www.w3.org/2000/svg" id="polygon52" fill="#EF1818" points="9.605,4.5,22.048,4.5,22.877,5.327,21.217,7.816,10.433,7.816,8.777,5.327"/>
 <polygon xmlns="http://www.w3.org/2000/svg" id="polygon54" fill="#EF1818" points="23.707,6.156,24.536,7.816,22.877,16.942,21.217,18.599,19.56,16.942,21.217,8.644"/>
 <polygon xmlns="http://www.w3.org/2000/svg" id="polygon56" fill="#464646" points="21.217,19.428,22.048,21.086,20.389,30.213,18.729,31.872,17.071,30.213,18.729,21.92"/>
 <polygon xmlns="http://www.w3.org/2000/svg" id="polygon58" fill="#464646" points="17.071,33.53,4.628,33.53,3.798,32.698,5.457,30.213,16.242,30.213,17.9,32.7"/>
 <polygon xmlns="http://www.w3.org/2000/svg" id="polygon60" fill="#EF1818" points="2.968,31.872,2.14,30.213,3.798,21.086,5.457,19.428,7.115,21.086,5.457,29.381"/>
 <polygon xmlns="http://www.w3.org/2000/svg" id="polygon62" fill="#EF1818" points="5.457,18.599,4.628,16.942,6.288,7.816,7.945,6.156,9.605,7.816,7.945,16.112"/>
 <polygon xmlns="http://www.w3.org/2000/svg" id="polygon64" fill="#EF1818" points="6.288,18.599,7.945,16.942,18.729,16.942,20.389,18.599,18.729,20.258,7.945,20.258"/>
 <circle xmlns="http://www.w3.org/2000/svg" id="circle66" fill="#464646" cx="22.521" cy="31.868" r="1.748"/>
 <polygon xmlns="http://www.w3.org/2000/svg" id="polygon68" fill="#464646" points="38.394,4.5,50.836,4.5,51.665,5.327,50.005,7.816,39.221,7.816,37.564,5.327"/>
 <polygon xmlns="http://www.w3.org/2000/svg" id="polygon70" fill="#464646" points="52.495,6.156,53.324,7.816,51.665,16.942,50.005,18.599,48.348,16.942,50.005,8.644"/>
 <polygon xmlns="http://www.w3.org/2000/svg" id="polygon72" fill="#464646" points="50.005,19.428,50.836,21.086,49.177,30.213,47.518,31.872,45.859,30.213,47.518,21.92"/>
 <polygon xmlns="http://www.w3.org/2000/svg" id="polygon74" fill="#464646" points="45.859,33.53,33.416,33.53,32.586,32.698,34.245,30.213,45.03,30.213,46.688,32.7"/>
 <polygon xmlns="http://www.w3.org/2000/svg" id="polygon76" fill="#EF1818" points="31.756,31.872,30.928,30.213,32.586,21.086,34.245,19.428,35.903,21.086,34.245,29.381"/>
 <polygon xmlns="http://www.w3.org/2000/svg" id="polygon78" fill="#464646" points="34.245,18.599,33.416,16.942,35.076,7.816,36.733,6.156,38.394,7.816,36.733,16.112"/>
 <polygon xmlns="http://www.w3.org/2000/svg" id="polygon80" fill="#464646" points="35.076,18.599,36.733,16.942,47.518,16.942,49.177,18.599,47.518,20.258,36.733,20.258"/>
 <circle xmlns="http://www.w3.org/2000/svg" id="circle82" fill="#464646" cx="51.31" cy="31.868" r="1.748"/>
 <circle xmlns="http://www.w3.org/2000/svg" id="circle84" fill="#464646" cx="55.509" cy="25.317" r="1.748"/>
 <circle xmlns="http://www.w3.org/2000/svg" id="circle86" fill="#464646" cx="57.468" cy="12.377" r="1.748"/>
 <circle xmlns="http://www.w3.org/2000/svg" id="circle88" fill="#464646" cx="87.552" cy="6.01" r="1.748"/>
 <polygon xmlns="http://www.w3.org/2000/svg" id="polygon90" fill="#464646" points="67.194,4.5,79.636,4.5,80.466,5.327,78.806,7.816,68.021,7.816,66.364,5.327"/>
 <polygon xmlns="http://www.w3.org/2000/svg" id="polygon92" fill="#464646" points="81.294,6.156,82.124,7.816,80.466,16.942,78.806,18.599,77.147,16.942,78.806,8.644"/>
 <polygon xmlns="http://www.w3.org/2000/svg" id="polygon94" fill="#464646" points="78.806,19.428,79.636,21.086,77.978,30.213,76.317,31.872,74.659,30.213,76.317,21.92"/>
 <polygon xmlns="http://www.w3.org/2000/svg" id="polygon96" fill="#EF1818" points="74.659,33.53,62.216,33.53,61.386,32.698,63.046,30.213,73.829,30.213,75.487,32.7"/>
 <polygon xmlns="http://www.w3.org/2000/svg" id="polygon98" fill="#EF1818" points="60.556,31.872,59.728,30.213,61.386,21.086,63.046,19.428,64.704,21.086,63.046,29.381"/>
 <polygon xmlns="http://www.w3.org/2000/svg" id="polygon100" fill="#464646" points="63.046,18.599,62.216,16.942,63.876,7.816,65.534,6.156,67.194,7.816,65.534,16.112"/>
 <polygon xmlns="http://www.w3.org/2000/svg" id="polygon102" fill="#EF1818" points="63.876,18.599,65.534,16.942,76.317,16.942,77.978,18.599,76.317,20.258,65.534,20.258"/>
 <circle xmlns="http://www.w3.org/2000/svg" id="circle104" fill="#464646" cx="80.11" cy="31.868" r="1.748"/>
 <polygon xmlns="http://www.w3.org/2000/svg" id="polygon106" fill="#464646" points="96.069,4.5,108.511,4.5,109.341,5.327,107.681,7.816,96.896,7.816,95.239,5.327"/>
 <polygon xmlns="http://www.w3.org/2000/svg" id="polygon108" fill="#464646" points="110.169,6.156,110.999,7.816,109.341,16.942,107.681,18.599,106.022,16.942,107.681,8.644"/>
 <polygon xmlns="http://www.w3.org/2000/svg" id="polygon110" fill="#EF1818" points="107.681,19.428,108.511,21.086,106.853,30.213,105.192,31.872,103.534,30.213,105.192,21.92"/>
 <polygon xmlns="http://www.w3.org/2000/svg" id="polygon112" fill="#EF1818" points="103.534,33.53,91.091,33.53,90.261,32.698,91.921,30.213,102.704,30.213,104.362,32.7"/>
 <polygon xmlns="http://www.w3.org/2000/svg" id="polygon114" fill="#EF1818" points="89.431,31.872,88.603,30.213,90.261,21.086,91.921,19.428,93.579,21.086,91.921,29.381"/>
 <polygon xmlns="http://www.w3.org/2000/svg" id="polygon116" fill="#464646" points="91.921,18.599,91.091,16.942,92.751,7.816,94.409,6.156,96.069,7.816,94.409,16.112"/>
 <polygon xmlns="http://www.w3.org/2000/svg" id="polygon118" fill="#EF1818" points="92.751,18.599,94.409,16.942,105.192,16.942,106.853,18.599,105.192,20.258,94.409,20.258"/>
 <circle xmlns="http://www.w3.org/2000/svg" id="circle120" fill="#464646" cx="108.985" cy="31.868" r="1.748"/>
 <polygon xmlns="http://www.w3.org/2000/svg" id="polygon122" fill="#C7C7C7" points="113.368,36.565,-0.112,36.565,0.888,37.872,114.368,37.872"/>
 <polygon xmlns="http://www.w3.org/2000/svg" id="polygon124" fill="#AAAAAA" points="113.253,36.565,114.368,37.872,114.368,2.008,113.253,1.008"/>
</g>
</g></svg>